# xmcd
#
# Track frame offsets:
#	150
#	18465
#	34235
#	54355
#	71850
#	81640
#	106244
#	121994
#	145489
#	163584
#	182394
#	200357
#	217853
#
# Disc length: 3197 seconds
#
# Revision: 1
# Processed by: cddbd v1.5.2PL0 Copyright (c) Steve Scherf et al.
# Submitted via: audiograbber 1.83.01
#
DISCID=b70c7b0d
DTITLE=Adore - Teach Me Your Way CD1
DYEAR=1900
DGENRE=Worship
TTITLE0=With All Of My Heart
TTITLE1=See, What A Morning
TTITLE2=Just By Your Mercy
TTITLE3=Alleluia (The One Who Died Has Risen)
TTITLE4=Our Father In Heaven (The Lords Prayer)
TTITLE5=Teach Me Your Way
TTITLE6=Be Still Before The Lord
TTITLE7=As I Lift My Hands
TTITLE8=Speak, O Lord
TTITLE9=Sweezest Lamb Of God
TTITLE10=My Worship
TTITLE11=Come Away With Me
TTITLE12=Holy Spirit, Voice Of God
EXTD=
EXTT0=
EXTT1=
EXTT2=
EXTT3=
EXTT4=
EXTT5=
EXTT6=
EXTT7=
EXTT8=
EXTT9=
EXTT10=
EXTT11=
EXTT12=
PLAYORDER=
